# xmcd
#
# Track frame offsets:
#	150
#	22407
#	44170
#	75390
#	99270
#	123402
#	147905
#	172217
#	196840
#	223267
#	243330
#	261677
#	279617
#	296687
#	312927
#
# Disc length: 4496 seconds
#
# Revision: 1
# Processed by: cddbd v1.5.1PL0 Copyright (c) Steve Scherf et al.
# Submitted via: CDex 1.50Beta5
#
DISCID=f2118e0f
DTITLE=Various Artist - NEW MUSIC BEST COLLECTION 04
DYEAR=1900
DGENRE=New Age
TTITLE0=鈴木雅之/もう涙はいらない
TTITLE1=鈴木聖美withラッツ&スター/ロンリー・チャップリン
TTITLE2=THE BUBBLE GUM BROTHERS/WON'T BE LONG
TTITLE3=渡辺美里/泣いちゃいそうだよ
TTITLE4=渡辺美里/サマータイムブルース
TTITLE5=渡辺美里/卒業
TTITLE6=TMN/WILD HEAVEN
TTITLE7=TMN/Love Train
TTITLE8=小室哲也/Magic
TTITLE9=小比類巻かほる/Hold On Me
TTITLE10=大江千里/APOLLO
TTITLE11=大江千里/格好悪いふられ方
TTITLE12=佐野元春/ジャスミンガール
TTITLE13=佐野元春/ガラスのジェネレーション
TTITLE14=佐野元春/SOMEDAY
EXTD=
EXTT0=
EXTT1=
EXTT2=
EXTT3=
EXTT4=
EXTT5=
EXTT6=
EXTT7=
EXTT8=
EXTT9=
EXTT10=
EXTT11=
EXTT12=
EXTT13=
EXTT14=
PLAYORDER=
